<?xml version="1.0" encoding="utf-8"?>
<!-- Generator: Adobe Illustrator 28.0.0, SVG Export Plug-In . SVG Version: 6.00 Build 0)  -->
<svg version="1.1" id="レイヤー_1" xmlns="http://www.w3.org/2000/svg" xmlns:xlink="http://www.w3.org/1999/xlink" x="0px"
	 y="0px" viewBox="0 0 16 16" style="enable-background:new 0 0 16 16;" xml:space="preserve">
<style type="text/css">
	.st0{fill:#FCCA76;}
</style>
<path class="st0" d="M0.8,2.9c0-0.6,0.4-1,1-1h12c0.6,0,1,0.4,1,1s-0.4,1-1,1h-12C1.3,3.9,0.8,3.5,0.8,2.9z M0.9,8c0-0.6,0.4-1,1-1
	h12c0.6,0,1,0.4,1,1s-0.4,1-1,1h-12C1.4,9,0.9,8.5,0.9,8z M14.8,12.9c0,0.6-0.4,1-1,1h-12c-0.6,0-1-0.4-1-1s0.4-1,1-1h12
	C14.4,11.9,14.8,12.4,14.8,12.9z"/>
</svg>
