<?xml version="1.0" encoding="utf-8"?>
<!-- Generator: Adobe Illustrator 28.0.0, SVG Export Plug-In . SVG Version: 6.00 Build 0)  -->
<svg version="1.1" id="レイヤー_1" xmlns="http://www.w3.org/2000/svg" xmlns:xlink="http://www.w3.org/1999/xlink" x="0px"
	 y="0px" viewBox="0 0 16 16" style="enable-background:new 0 0 16 16;" xml:space="preserve">
<style type="text/css">
	.st0{fill:#00194A;}
</style>
<path class="st0" d="M13,6.5c0,1.4-0.5,2.8-1.2,3.8l4,4c0.4,0.4,0.4,1,0,1.4c-0.4,0.4-1,0.4-1.4,0l-4-4C9.3,12.5,7.9,13,6.5,13
	C2.9,13,0,10.1,0,6.5S2.9,0,6.5,0S13,2.9,13,6.5z M6.5,11C9,11,11,9,11,6.5S9,2,6.5,2S2,4,2,6.5S4,11,6.5,11z"/>
</svg>
