<?xml version="1.0" encoding="utf-8"?>
<!-- Generator: Adobe Illustrator 28.0.0, SVG Export Plug-In . SVG Version: 6.00 Build 0)  -->
<svg version="1.1" id="レイヤー_1" xmlns="http://www.w3.org/2000/svg" xmlns:xlink="http://www.w3.org/1999/xlink" x="0px"
	 y="0px" viewBox="0 0 14 16" style="enable-background:new 0 0 14 16;" xml:space="preserve">
<style type="text/css">
	.st0{fill:#FFFFFF;}
</style>
<path class="st0" d="M11,7c1.7,0,3-1.3,3-3s-1.3-3-3-3S8,2.3,8,4c0,0.1,0,0.2,0,0.4L5.1,5.8C4.5,5.3,3.8,5,3,5C1.3,5,0,6.3,0,8
	s1.3,3,3,3c0.8,0,1.5-0.3,2.1-0.8L8,11.6c0,0.1,0,0.2,0,0.4c0,1.7,1.3,3,3,3s3-1.3,3-3s-1.3-3-3-3c-0.8,0-1.5,0.3-2.1,0.8L6,8.4
	C6,8.2,6,8.1,6,8s0-0.2,0-0.4l2.9-1.5C9.5,6.7,10.2,7,11,7z"/>
</svg>
